<?xml version="1.0" encoding="UTF-8"?>
<svg version="1.1" xmlns="http://www.w3.org/2000/svg" width="924" height="850">
<path d="M0 0 C9.11496151 7.53261738 16.19395233 19.89722052 17.39282227 31.78613281 C17.42947998 32.50124023 17.4661377 33.21634766 17.50390625 33.953125 C17.54588135 34.76168945 17.58785645 35.57025391 17.63110352 36.40332031 C17.68995728 37.68867676 17.68995728 37.68867676 17.75 39 C17.7924585 39.88010742 17.83491699 40.76021484 17.87866211 41.66699219 C18.23856153 49.69919404 18.28854897 57.71099341 18.1875 65.75 C18.7959375 65.26660156 19.404375 64.78320312 20.03125 64.28515625 C22.1875 62.75 22.1875 62.75 24.6875 62.1875 C27.1875 62.75 27.1875 62.75 29.5 64.9375 C34.03980449 72.88679032 31.16951508 83.64471239 28.95410156 91.99511719 C26.39786419 100.92241815 23.72590778 107.41175217 15.95703125 112.7890625 C14.1875 113.75 14.1875 113.75 12.1875 113.75 C11.1975 109.79 10.2075 105.83 9.1875 101.75 C8.81557024 116.13128414 9.71356358 129.53834762 14.3828125 143.2734375 C15.1875 145.75 15.1875 145.75 15.1875 147.75 C15.72262207 147.91435547 16.25774414 148.07871094 16.80908203 148.24804688 C22.7903637 150.15441089 28.40730923 152.53364725 34.0625 155.25 C34.96726074 155.6843335 35.87202148 156.11866699 36.80419922 156.56616211 C49.57675996 162.79236861 62.24055921 169.32332927 72.86328125 178.875 C75.47443178 180.98147438 78.1493379 182.34709687 81.1875 183.75 C81.1875 184.41 81.1875 185.07 81.1875 185.75 C80.36765625 186.10191406 79.5478125 186.45382812 78.703125 186.81640625 C72.03353624 189.87197144 67.96073079 191.81692303 65.1875 198.75 C66.28449219 198.42386719 67.38148438 198.09773437 68.51171875 197.76171875 C73.68594905 196.47242846 78.69367195 196.48957331 84 196.5625 C85.4533374 196.57216797 85.4533374 196.57216797 86.93603516 196.58203125 C93.3861496 196.65144563 99.78733133 196.89256113 106.1875 197.75 C104.14773786 196.78761964 102.10559954 195.83027473 100.0625 194.875 C98.92554688 194.34132813 97.78859375 193.80765625 96.6171875 193.2578125 C93.50880479 191.891257 90.42545004 190.76370472 87.1875 189.75 C90.23691652 186.46601298 93.32906221 184.03648166 97.1875 181.75 C97.8165625 181.37359375 98.445625 180.9971875 99.09375 180.609375 C113.01156722 173.65046639 131.63112884 177.55205438 145.79101562 181.92431641 C163.21582332 187.92785141 176.9364294 199.79442206 185.00610352 216.34130859 C189.83303761 226.5569484 193.56948911 235.95058309 192.9765625 247.40625 C191.95345332 262.28556598 191.95345332 262.28556598 197.30859375 275.484375 C200.39776447 278.49883641 203.81917032 281.00807206 207.37890625 283.43847656 C218.04296724 291.17164822 223.46657454 305.36112741 226.1875 317.75 C226.71941197 321.40917039 227.00677761 325.06149321 227.25 328.75 C227.36396118 330.27185913 227.36396118 330.27185913 227.48022461 331.82446289 C227.7259691 335.13232965 227.95678622 338.44105375 228.1875 341.75 C228.45168732 345.37715392 228.71933849 349.00403704 228.98803711 352.63085938 C229.1585389 354.94574299 229.32617005 357.26084042 229.49047852 359.57617188 C229.927077 365.65457776 230.46842535 371.6983187 231.1875 377.75 C231.8475 377.75 232.5075 377.75 233.1875 377.75 C233.15720703 377.19538086 233.12691406 376.64076172 233.09570312 376.06933594 C232.95852333 373.546283 232.82299539 371.02314393 232.6875 368.5 C232.63980469 367.62730469 232.59210937 366.75460937 232.54296875 365.85546875 C232.49785156 365.01113281 232.45273437 364.16679687 232.40625 363.296875 C232.3434082 362.13430176 232.3434082 362.13430176 232.27929688 360.94824219 C232.19308463 358.88373418 232.1875 356.8163073 232.1875 354.75 C237.08553063 355.15147792 239.60521288 357.54391009 242.875 360.9375 C243.39682861 361.47213867 243.91865723 362.00677734 244.45629883 362.55761719 C260.59144865 379.51926731 270.2234172 399.22144964 274.375 422.125 C274.54233643 423.04547119 274.70967285 423.96594238 274.88208008 424.91430664 C277.84620832 442.42544074 277.46182413 460.29525302 277.66430664 477.99926758 C277.90628246 498.27742074 278.73044357 517.37883072 285.1875 536.75 C285.30722158 538.2674014 285.36278437 539.79043198 285.375 541.3125 C285.38917969 542.09753906 285.40335938 542.88257813 285.41796875 543.69140625 C285.21862453 546.33694051 284.78531158 548.61114092 284.19458008 551.18408203 C282.99497632 557.09379585 282.8734977 562.84893708 282.84375 568.86328125 C282.8218158 570.56039497 282.8218158 570.56039497 282.79943848 572.29179382 C282.75328912 575.88199383 282.71890747 579.4721427 282.6875 583.0625 C282.64597861 587.78795305 282.59216642 592.51304271 282.53125 597.23828125 C282.5259729 598.2991243 282.5206958 599.35996735 282.51525879 600.45295715 C282.443493 605.95184901 282.12423687 611.38149748 281.47851562 616.84448242 C281.35400024 617.90334152 281.22948486 618.96220062 281.10119629 620.05314636 C280.1875 622.75 280.1875 622.75 277.79797363 624.53668213 C274.81377283 625.92370406 271.81874496 627.18888066 268.75 628.37890625 C267.52539062 628.85650391 266.30078125 629.33410156 265.0390625 629.82617188 C263.75525735 630.32174159 262.47140273 630.81718316 261.1875 631.3125 C259.90348156 631.8114264 258.61962579 632.31077165 257.3359375 632.81054688 C254.97348097 633.72941813 252.61027922 634.64637737 250.24609375 635.56079102 C248.30221393 636.31658912 246.36716203 637.09582446 244.4453125 637.90600586 C241.47972912 639.01457222 240.12121814 638.95357667 237.1875 637.75 C234.43375279 634.34831227 232.68217692 630.8045485 231.046875 626.76171875 C229.29640814 622.66403496 227.20822114 618.71955891 225.1875 614.75 C226.75901333 620.3896152 228.45505687 625.54534642 231.1875 630.75 C231.1875 631.41 231.1875 632.07 231.1875 632.75 C226.6989088 631.99173314 222.58997998 631.2665278 219.41015625 627.828125 C216.57167788 623.05619036 214.91007456 618.30267995 216.1875 612.75 C218.56519588 606.27178623 221.73149519 601.00568375 227.1875 596.75 C231.0625 595.875 231.0625 595.875 234.1875 595.75 C233.5275 599.05 232.8675 602.35 232.1875 605.75 C233.1775 605.09 234.1675 604.43 235.1875 603.75 C236.8375 603.75 238.4875 603.75 240.1875 603.75 C241.5075 608.04 242.8275 612.33 244.1875 616.75 C244.5175 616.75 244.8475 616.75 245.1875 616.75 C245.001875 615.615625 244.81625 614.48125 244.625 613.3125 C244.480625 612.136875 244.33625 610.96125 244.1875 609.75 C246.33218649 607.60531351 250.77194894 608.0104212 253.75 607.6875 C254.55630859 607.59662109 255.36261719 607.50574219 256.19335938 607.41210938 C258.19097377 607.18752551 260.1891856 606.96826764 262.1875 606.75 C260.92652992 606.26756982 259.66462678 605.78757806 258.40234375 605.30859375 C257.69972412 605.04103271 256.99710449 604.77347168 256.27319336 604.49780273 C254.46127107 603.84815765 252.60703908 603.3189652 250.75 602.8125 C244.55072626 600.18423648 240.23405892 592.20397167 236.94921875 586.66015625 C233.08301409 576.96490457 237.69039778 561.76772598 241.53125 552.51171875 C242.36006381 550.88541259 243.22227732 549.27505961 244.13671875 547.6953125 C246.76654236 542.82671712 246.58189037 538.01292982 245.1875 532.75 C243.21601314 527.93228699 240.73128192 523.35031733 238.27050781 518.76904297 C237.24416039 516.85563153 236.240038 514.93229602 235.2421875 513.00390625 C232.54642107 507.86327805 229.93556732 503.20694092 226.1875 498.75 C226.42984375 499.44561035 226.6721875 500.1412207 226.921875 500.85791016 C228.01996381 504.02705782 229.10383688 507.20089216 230.1875 510.375 C230.5690625 511.46941406 230.950625 512.56382812 231.34375 513.69140625 C231.88515625 515.28662109 231.88515625 515.28662109 232.4375 516.9140625 C232.77265625 517.88811035 233.1078125 518.8621582 233.453125 519.86572266 C234.23465171 522.93518958 234.31841377 525.59579646 234.1875 528.75 C230.34778555 525.186524 227.36880576 521.11854506 224.25 516.9375 C216.15769306 506.25400964 207.71794736 496.10314849 198.08447266 486.77050781 C187.29122819 476.30846855 178.38829119 465.05715737 173.1875 450.75 C172.82011719 449.76257813 172.45273437 448.77515625 172.07421875 447.7578125 C168.84741532 437.59631516 168.39446986 427.3361061 167.87036133 416.74072266 C167.80743896 415.52433105 167.7445166 414.30793945 167.6796875 413.0546875 C167.60790283 411.4147583 167.60790283 411.4147583 167.53466797 409.74169922 C167.18475805 406.72637139 166.42650862 404.50419948 165.1875 401.75 C164.8575 400.76 164.5275 399.77 164.1875 398.75 C168.24853724 400.54133472 171.67897001 403.15423573 175.25 405.75 C180.17494445 409.31238402 180.17494445 409.31238402 185.1875 412.75 C186.3433436 415.36601059 187.38038565 417.94921313 188.375 420.625 C192.22962121 430.49900938 197.50124165 438.50707397 204.1875 446.75 C204.043125 445.66460938 203.89875 444.57921875 203.75 443.4609375 C203.56230044 442.0156509 203.37481162 440.57033693 203.1875 439.125 C203.09210937 438.41214844 202.99671875 437.69929688 202.8984375 436.96484375 C202.37143899 432.86178391 202.08283016 428.89754258 202.1875 424.75 C219.26531681 441.26686662 229.32645736 461.44226128 239.1875 482.75 C237.25000894 474.8028691 235.18717413 466.90907719 232.875 459.0625 C232.60494141 458.09505859 232.33488281 457.12761719 232.05664062 456.13085938 C230.08059258 449.46451052 227.31342121 444.32246486 223.1875 438.75 C221.90698669 436.90250519 220.6343345 435.04949571 219.375 433.1875 C218.79105469 432.34058594 218.20710937 431.49367188 217.60546875 430.62109375 C216.20408908 427.78358945 216.10545834 426.75807382 216.06640625 423.7421875 C215.80918782 420.97422957 215.55128093 420.06392594 213.41674805 418.22192383 C210.97410719 416.80844347 208.50816182 415.60168042 205.9375 414.4375 C204.22359937 413.60881491 202.51004757 412.77940792 200.796875 411.94921875 C198.33106819 410.76961018 195.86248482 409.59657105 193.390625 408.4296875 C190.09398924 405.91629499 188.28586041 402.720059 186.1875 399.1875 C185.75107178 398.46731689 185.31464355 397.74713379 184.86499023 397.00512695 C177.6380316 384.96199667 172.9778162 374.4700187 172.8125 360.25 C172.79856201 359.45980469 172.78462402 358.66960937 172.77026367 357.85546875 C172.81725058 352.20239479 172.81725058 352.20239479 174.55419922 350.08007812 C178.38042948 346.96418837 183.37268777 346.08658048 188.1875 345.75 C192.19335558 346.89660359 195.62909689 348.59954773 199.1875 350.75 C196.10005009 345.75127158 191.91636394 343.78553258 186.87109375 341.15234375 C182.28798729 338.7573871 178.56421368 336.21726538 175.0625 332.4375 C174.11375 331.550625 173.165 330.66375 172.1875 329.75 C170.05818245 329.85255406 170.05818245 329.85255406 168.1875 330.75 C164.13229092 338.86041817 168.09335177 351.17020934 169.75561523 359.55224609 C171.19505338 367.06952839 171.65833756 374.08581079 171.1875 381.75 C166.91528677 383.03972475 164.59290654 383.47880666 160.55859375 381.38671875 C141.61587437 367.94089091 128.45037788 349.81247615 124.46810913 326.7857666 C123.67427517 321.02665016 123.74759723 315.20161032 123.79638672 309.39941406 C123.81253656 307.11983912 123.79640494 304.84202328 123.77734375 302.5625 C123.74597508 282.32395471 123.74597508 282.32395471 128.70703125 275.73046875 C133.80875207 270.62874793 141.22077023 268.76665519 148.25 268.25 C163.74662068 268.83008741 177.2927602 276.11748348 187.72265625 287.078125 C190.323628 289.89756189 192.82173893 292.73161518 195.1875 295.75 C194.2903125 294.0484375 194.2903125 294.0484375 193.375 292.3125 C191.92958485 289.44667687 190.82198098 286.70623113 189.9375 283.625 C188.44053761 278.91797388 186.1004228 274.86843665 183.59179688 270.62890625 C180.0367319 264.59879604 176.83796458 258.39768052 173.68920898 252.14697266 C171.60024164 248.08586774 169.73023146 244.75644643 166.1875 241.75 C166.63222656 242.87019531 167.07695313 243.99039062 167.53515625 245.14453125 C168.10726086 246.6169972 168.67884865 248.08966403 169.25 249.5625 C169.69182617 250.66948242 169.69182617 250.66948242 170.14257812 251.79882812 C172.30078125 257.41015625 172.30078125 257.41015625 171.1875 260.75 C150.80654154 264.54826953 127.6699441 260.09118095 108.1875 253.75 C107.42856445 253.50378906 106.66962891 253.25757813 105.88769531 253.00390625 C96.10343028 249.77467389 87.16927786 246.50065531 79.1875 239.75 C80.28123872 242.05740493 81.21237886 243.77754445 82.9375 245.6875 C84.1875 247.75 84.1875 247.75 83.6875 250.125 C80.65216065 255.43684386 77.37128782 258.63972731 72.1875 261.75 C72.1875 262.74 72.1875 263.73 72.1875 264.75 C73.60289062 264.316875 73.60289062 264.316875 75.046875 263.875 C88.44550016 259.93102863 98.41730748 259.36490374 111.1875 265.75 C113.39282526 271.97680075 113.2618714 279.64185543 111.12890625 285.8125 C109.61794629 288.8917463 107.95376022 291.81000703 106.1875 294.75 C105.28257812 296.39548828 105.28257812 296.39548828 104.359375 298.07421875 C97.14584621 310.69789414 88.20340664 317.92574474 74.75 323.0625 C66.75215101 324.60594454 59.65248477 323.85833655 51.8125 321.9375 C50.79555054 321.6897583 50.79555054 321.6897583 49.75805664 321.43701172 C45.80822833 320.39580465 42.57426659 319.03181764 39.1875 316.75 C39.5134314 315.77752319 39.5134314 315.77752319 39.84594727 314.78540039 C42.11976573 307.38876019 42.52450361 300.88146946 42.125 293.1875 C42.09728516 292.12853516 42.06957031 291.06957031 42.04101562 289.97851562 C41.72998005 282.86850514 40.27233686 277.16206014 37.1875 270.75 C36.96835937 271.70777344 36.74921875 272.66554688 36.5234375 273.65234375 C32.40634278 291.16668725 26.3782686 306.26445137 17.1875 321.75 C16.58164062 322.78769531 15.97578125 323.82539063 15.3515625 324.89453125 C13.3227039 328.32917259 11.26975275 331.63576007 8.9375 334.875 C6.74371571 338.47907419 6.03996861 341.62973504 5.1875 345.75 C5.62578125 345.3375 6.0640625 344.925 6.515625 344.5 C22.80427995 329.66805403 22.80427995 329.66805403 31.5234375 329.80078125 C32.87026719 329.88034294 34.21663126 329.9680669 35.5625 330.0625 C36.63769897 330.13198853 36.63769897 330.13198853 37.73461914 330.20288086 C42.08685476 330.51261585 46.32463035 331.05137263 50.625 331.8125 C68.99807176 334.80293831 88.46313127 333.23291249 104.1875 322.75 C106.08761707 324.65011707 105.40607541 327.84532061 105.4375 330.375 C105.42463044 351.78223057 97.19149851 370.60117524 82.1875 385.75 C79.5868338 388.16337542 76.89103139 390.45319457 74.1875 392.75 C68.39276347 397.77596264 62.95320396 402.58627 58.5703125 408.91015625 C57.13441114 410.82063518 55.58717278 412.27938613 53.8125 413.875 C44.98873505 422.40529162 38.07382562 436.56302275 37.1875 448.75 C37.8475 448.75 38.5075 448.75 39.1875 448.75 C39.33445312 448.20472656 39.48140625 447.65945313 39.6328125 447.09765625 C42.42582457 437.70735705 47.53918513 431.15248661 54.3125 424.25 C55.08484985 423.45662231 55.08484985 423.45662231 55.87280273 422.6472168 C58.57922979 419.97492091 60.46394108 418.46342472 64.1875 417.75 C64.21255615 418.41942627 64.2376123 419.08885254 64.26342773 419.77856445 C64.38097076 422.87333094 64.50296486 425.96790752 64.625 429.0625 C64.68397461 430.6412793 64.68397461 430.6412793 64.74414062 432.25195312 C64.94778965 437.34317886 65.21745947 442.40422707 65.70703125 447.4765625 C66.16671441 452.26287856 66.41510107 457.00454427 66.4375 461.8125 C66.44289795 462.6154248 66.4482959 463.41834961 66.45385742 464.24560547 C66.40628752 470.11561617 65.63301166 475.62496581 64.5 481.375 C63.18848456 488.06215378 63.19225832 492.59234037 66.1875 498.75 C67.52926988 504.36103767 67.27934419 510.01484035 67.1875 515.75 C64.25119516 516.50496141 61.31387449 517.25514131 58.375 518 C57.46065186 518.23178955 56.54630371 518.4635791 55.60424805 518.70239258 C50.64070644 519.943385 45.68557496 521.0726024 40.65917969 522.02441406 C30.61680804 523.94568191 20.89951925 526.78725468 11.125 529.75 C10.4102652 529.96546478 9.6955304 530.18092957 8.95913696 530.40292358 C-8.19821589 535.59497221 -21.79878924 541.7868531 -35.18359375 553.90625 C-37.8125 555.75 -37.8125 555.75 -39.76953125 555.84765625 C-42.85438808 554.19020927 -45.40352871 551.93820404 -48.0625 549.6875 C-60.9594359 539.26033409 -75.28514748 534.19336797 -91.06152344 529.56152344 C-93.62407737 528.80558367 -96.17556506 528.0204585 -98.7265625 527.2265625 C-114.82935018 522.31800195 -131.33029325 519.09629245 -147.8125 515.75 C-147.52272303 513.54610517 -147.2257245 511.34315926 -146.92578125 509.140625 C-146.76118408 507.91375977 -146.59658691 506.68689453 -146.42700195 505.42285156 C-145.85362741 501.99581675 -145.02554095 498.81513388 -144 495.5 C-142.42798443 489.09520391 -143.32547495 483.96363411 -144.58374023 477.62744141 C-146.45036809 468.07119517 -146.17902592 458.77241244 -145.33203125 449.1015625 C-144.76587898 442.57289515 -144.48578386 436.04783389 -144.25 429.5 C-144.18522461 427.79263672 -144.18522461 427.79263672 -144.11914062 426.05078125 C-144.01451199 423.28393504 -143.9123311 420.51702274 -143.8125 417.75 C-139.14281224 419.45910868 -136.00570163 421.90653256 -132.5 425.375 C-131.9325708 425.93533936 -131.3651416 426.49567871 -130.78051758 427.07299805 C-124.70578024 433.40325936 -121.21207772 440.74918114 -117.8125 448.75 C-117.37647821 442.25327526 -118.4787113 438.30048347 -121.5625 432.625 C-122.08457031 431.60986328 -122.08457031 431.60986328 -122.6171875 430.57421875 C-126.47723826 423.18293636 -131.10223011 417.1547467 -136.83398438 411.16210938 C-139.62829631 408.19099091 -141.73470821 405.24022328 -143.8125 401.75 C-145.54994577 399.98161586 -145.54994577 399.98161586 -147.5 398.4375 C-151.1271207 395.3827323 -154.46276812 392.15036645 -157.7578125 388.7421875 C-159.88417063 386.61248056 -159.88417063 386.61248056 -162.7421875 384.44140625 C-166.11832054 381.65670485 -168.43739555 378.46325544 -170.8125 374.8125 C-171.24183838 374.15644775 -171.67117676 373.50039551 -172.11352539 372.82446289 C-182.10294794 357.14345823 -185.45607318 341.10375377 -184.8125 322.75 C-182.71440215 323.79663732 -180.62198181 324.84935802 -178.54296875 325.93359375 C-160.26487113 334.94629626 -141.49598548 333.73179525 -122.02734375 330.44140625 C-111.55178152 328.69202193 -104.89645979 329.79483046 -95.8125 335.75 C-91.90853438 338.83038931 -88.33438644 342.24197925 -84.8125 345.75 C-84.8125 340.36922356 -87.71750745 335.68603309 -90.8125 331.5 C-104.75156163 312.23390845 -111.7397777 291.91660273 -115.8125 268.75 C-122.7678143 283.46301096 -121.87153294 300.79249471 -119.8125 316.75 C-130.45165702 322.79971674 -142.74629149 325.75640222 -154.75 322.625 C-168.89310868 317.91792823 -178.66478489 308.51540027 -185.3125 295.4375 C-185.83585938 294.44943359 -186.35921875 293.46136719 -186.8984375 292.44335938 C-191.94785515 282.83507631 -191.94785515 282.83507631 -191.91015625 277.51953125 C-191.90693359 276.71708984 -191.90371094 275.91464844 -191.90039062 275.08789062 C-191.89201172 274.25451172 -191.88363281 273.42113281 -191.875 272.5625 C-191.87048828 271.71751953 -191.86597656 270.87253906 -191.86132812 270.00195312 C-191.84955403 267.91793845 -191.8316189 265.83396023 -191.8125 263.75 C-183.16619243 259.87974804 -173.16821565 258.49783498 -164.2421875 261.87890625 C-159.90756917 263.43295752 -155.34619571 264.01736856 -150.8125 264.75 C-152.15671412 261.66470855 -152.74130375 260.79643234 -155.6875 258.875 C-159.14338584 256.52499763 -160.63835454 254.27361505 -162.8125 250.75 C-164.43601109 248.95605554 -164.43601109 248.95605554 -165.8125 247.75 C-165.02875 246.986875 -164.245 246.22375 -163.4375 245.4375 C-160.73992283 242.84108195 -160.73992283 242.84108195 -158.8125 239.75 C-159.61171875 240.26949219 -160.4109375 240.78898438 -161.234375 241.32421875 C-179.65254279 253.01932294 -199.3644659 257.92997094 -220.8125 260.75 C-221.77800781 260.88277344 -222.74351562 261.01554687 -223.73828125 261.15234375 C-232.74858601 262.22886134 -242.23869255 263.03662619 -250.8125 259.75 C-250.30164188 253.31318772 -249.08307103 247.79057576 -246.8125 241.75 C-251.61524365 247.99356674 -255.28506477 254.44170754 -258.68286133 261.50732422 C-261.02423973 266.32281351 -263.64978444 270.84550031 -266.5 275.375 C-270.75687009 282.18816541 -273.45871331 289.0735801 -275.8125 296.75 C-275.3278125 296.1209375 -274.843125 295.491875 -274.34375 294.84375 C-263.00213487 280.36137991 -252.17666321 272.62076973 -233.8125 268.75 C-226.59710979 267.88458588 -219.90914309 269.02302597 -213.5625 272.5625 C-206.46705466 278.20660425 -204.02869494 284.99339645 -202.8125 293.75 C-201.19008997 319.74629101 -205.45144421 344.85593771 -222.8125 364.75 C-223.53695312 365.62011719 -224.26140625 366.49023438 -225.0078125 367.38671875 C-237.76851324 382.31994023 -237.76851324 382.31994023 -246.01953125 383.0234375 C-248.8125 382.75 -248.8125 382.75 -250.8125 381.75 C-251.34858596 371.35588887 -250.40419607 361.90446677 -248.23535156 351.72998047 C-246.95538534 345.52522442 -245.82399762 339.07229645 -246.8125 332.75 C-248.22734043 330.94050419 -248.22734043 330.94050419 -249.8125 329.75 C-252.82366201 331.392452 -255.31920121 333.17457919 -257.8125 335.5 C-261.99206827 339.21824727 -266.82804562 341.49322271 -271.82421875 343.94140625 C-274.97990321 345.85131723 -276.70648773 347.7523913 -278.8125 350.75 C-277.90371094 350.17378906 -277.90371094 350.17378906 -276.9765625 349.5859375 C-272.28918289 346.88889138 -268.94492511 345.21832998 -263.5 346.25 C-259.90629683 347.2444839 -256.7895182 348.44521171 -253.8125 350.75 C-249.86795613 358.63908774 -253.19285686 371.2927556 -255.546875 379.25 C-257.42804035 384.45223504 -259.98806013 389.01449634 -262.8125 393.75 C-264.25933415 396.57619935 -265.70169981 399.40405915 -267.125 402.2421875 C-271.1104897 408.16506803 -276.47038793 410.81226686 -282.875 413.4375 C-283.56916016 413.73205078 -284.26332031 414.02660156 -284.97851562 414.33007812 C-288.57172001 415.8485738 -292.18525415 417.3146571 -295.8125 418.75 C-295.60753906 420.13832031 -295.60753906 420.13832031 -295.3984375 421.5546875 C-295.40734908 427.48088916 -299.3544624 432.06655732 -302.4375 436.875 C-308.73082008 447.13381212 -312.67005883 456.80218213 -315.30712891 468.50732422 C-315.77652859 470.59037034 -316.28782937 472.65599509 -316.82421875 474.72265625 C-317.51451856 477.39327314 -318.17340714 480.06691453 -318.8125 482.75 C-318.55146484 482.15687012 -318.29042969 481.56374023 -318.02148438 480.95263672 C-308.92270765 460.36884542 -299.04210419 442.44204963 -283.8125 425.75 C-281.8125 427.75 -281.8125 427.75 -281.76904297 429.81298828 C-281.86330566 430.64040527 -281.95756836 431.46782227 -282.0546875 432.3203125 C-282.15136719 433.21621094 -282.24804688 434.11210938 -282.34765625 435.03515625 C-282.45980469 435.97230469 -282.57195312 436.90945313 -282.6875 437.875 C-282.79191406 438.81988281 -282.89632812 439.76476562 -283.00390625 440.73828125 C-283.2637407 443.0767913 -283.53366059 445.41369244 -283.8125 447.75 C-276.6163326 439.1657394 -270.58633429 431.54121186 -268 420.5 C-266.74967264 415.76002949 -265.89478771 413.05364506 -261.75 410.3125 C-260.11665918 409.43468122 -258.46951949 408.58225866 -256.8125 407.75 C-254.80036313 406.51963208 -252.80035343 405.26922761 -250.8125 404 C-249.884375 403.42765625 -248.95625 402.8553125 -248 402.265625 C-245.70452405 400.93447059 -245.70452405 400.93447059 -244.8125 398.75 C-244.1525 398.75 -243.4925 398.75 -242.8125 398.75 C-243.20565084 401.58068602 -243.49718938 403.36524506 -245.33227539 405.60449219 C-247.13893807 408.22315484 -247.18100213 409.67326435 -247.18359375 412.828125 C-247.19817627 413.8166748 -247.21275879 414.80522461 -247.2277832 415.82373047 C-247.23511475 416.87189941 -247.24244629 417.92006836 -247.25 419 C-247.49626998 429.17560096 -248.637473 438.06616766 -251.8125 447.75 C-252.1115625 448.66523437 -252.410625 449.58046875 -252.71875 450.5234375 C-258.07829113 465.16976973 -267.62838906 476.91673143 -278.6875 487.625 C-285.20819404 494.04759394 -291.27100549 500.45459558 -296.8125 507.75 C-297.65913699 508.84193688 -298.50685317 509.9330376 -299.35546875 511.0234375 C-303.56283314 516.44609037 -307.71473557 521.90746246 -311.75390625 527.45703125 C-312.10324219 527.88371094 -312.45257813 528.31039062 -312.8125 528.75 C-313.1425 528.75 -313.4725 528.75 -313.8125 528.75 C-313.29152207 521.59572565 -311.62245512 515.43842676 -309.25 508.6875 C-308.92064453 507.72650391 -308.59128906 506.76550781 -308.25195312 505.77539062 C-307.44702834 503.43060973 -306.63378851 501.08908854 -305.8125 498.75 C-309.8969212 503.92585056 -313.35658063 509.14067548 -316.375 515 C-316.757771 515.73798828 -317.14054199 516.47597656 -317.53491211 517.23632812 C-324.94990946 530.29693269 -324.94990946 530.29693269 -325.8125 544.75 C-324.72144701 547.08974862 -323.46691647 549.24142428 -322.1171875 551.44140625 C-318.18032598 558.40752947 -316.89922916 566.91167693 -315.8125 574.75 C-315.69132812 575.50023437 -315.57015625 576.25046875 -315.4453125 577.0234375 C-314.77477819 584.45295769 -318.80343954 589.79586571 -322.8125 595.75 C-323.1940625 596.39582031 -323.575625 597.04164063 -323.96875 597.70703125 C-327.57505896 603.10283443 -333.94954682 604.06126164 -339.8125 605.75 C-340.4725 606.08 -341.1325 606.41 -341.8125 606.75 C-336.2025 607.41 -330.5925 608.07 -324.8125 608.75 C-323.8125 612.75 -323.8125 612.75 -323.8125 616.75 C-321.78084048 612.41579301 -321.29189368 608.46403788 -320.8125 603.75 C-315.0625 603.625 -315.0625 603.625 -312.8125 604.75 C-313.3075 600.295 -313.3075 600.295 -313.8125 595.75 C-310.03826078 595.75 -307.85325706 595.86470872 -304.9296875 598.3515625 C-303.09361485 600.41018941 -301.43184757 602.51738466 -299.8125 604.75 C-299.37421875 605.33394531 -298.9359375 605.91789063 -298.484375 606.51953125 C-295.40240108 611.15334415 -294.82391581 615.39739553 -295.8125 620.75 C-296.91574537 624.30366977 -298.1979137 627.07220392 -300.8125 629.75 C-304.12297918 631.053975 -307.27229142 631.53690007 -310.8125 631.75 C-310.52632812 631.04488281 -310.24015625 630.33976563 -309.9453125 629.61328125 C-308.80773169 626.73794768 -307.73857644 623.84547814 -306.6875 620.9375 C-306.15769531 619.47376953 -306.15769531 619.47376953 -305.6171875 617.98046875 C-305.21886719 616.87638672 -305.21886719 616.87638672 -304.8125 615.75 C-306.92819753 618.41265343 -308.48002092 620.93672615 -309.8125 624.0625 C-310.15410156 624.84496094 -310.49570312 625.62742187 -310.84765625 626.43359375 C-311.44694958 627.87238301 -312.02211733 629.3217834 -312.55859375 630.78515625 C-313.70536503 633.83673406 -314.67285287 635.63240242 -317.1875 637.75 C-322.10007446 639.62145694 -326.52683248 637.1973328 -331.21484375 635.3515625 C-332.43494141 634.87203125 -333.65503906 634.3925 -334.91210938 633.8984375 C-335.54270264 633.64803711 -336.1732959 633.39763672 -336.82299805 633.13964844 C-338.73868806 632.37948866 -340.65717158 631.6267581 -342.57617188 630.875 C-358.23075747 624.69577571 -358.23075747 624.69577571 -359.94432068 621.90992737 C-362.51291822 615.51956078 -361.9844608 607.82139472 -362.09375 601.02734375 C-362.11215942 600.12359512 -362.13056885 599.2198465 -362.14953613 598.28871155 C-362.20770848 595.42170076 -362.2606829 592.55463219 -362.3125 589.6875 C-362.18947002 568.08777917 -362.18947002 568.08777917 -364.8125 546.75 C-365.3754921 540.90780334 -365.08573392 535.94638502 -363 530.4375 C-356.72923794 513.2406733 -357.35202765 493.85549434 -357.25 475.8125 C-356.93665288 432.78266089 -356.93665288 432.78266089 -352.5 415.0625 C-352.28053711 414.15298584 -352.06107422 413.24347168 -351.83496094 412.30639648 C-347.64041532 395.54171577 -339.17650587 380.72288842 -327.8125 367.75 C-327.14202637 366.98115479 -327.14202637 366.98115479 -326.45800781 366.19677734 C-325.00347884 364.53802663 -323.53628767 362.89165341 -322.0625 361.25 C-321.60246582 360.73284424 -321.14243164 360.21568848 -320.66845703 359.68286133 C-318.25917877 357.05108688 -316.15865374 355.06344352 -312.8125 353.75 C-311.72138444 361.38780892 -311.29118574 369.05451821 -310.8125 376.75 C-308.87941911 365.19234619 -308.23579214 353.76133098 -307.78344727 342.0715332 C-306.5808008 311.89291624 -306.5808008 311.89291624 -300.3125 300.4375 C-299.97283203 299.7878125 -299.63316406 299.138125 -299.28320312 298.46875 C-295.49470721 291.59408183 -290.3829761 286.20712339 -284.8125 280.75 C-284.02875 279.94304687 -283.245 279.13609375 -282.4375 278.3046875 C-279.65470942 275.45028098 -277.13924907 272.96783271 -273.8125 270.75 C-273.42859541 268.44356837 -273.42859541 268.44356837 -273.58984375 265.76171875 C-273.6204187 264.24650635 -273.6204187 264.24650635 -273.65161133 262.70068359 C-273.70031372 261.08540771 -273.70031372 261.08540771 -273.75 259.4375 C-274.05132393 237.53914572 -269.07566917 215.02731145 -253.375 198.6875 C-236.21880316 183.10173224 -215.13852787 176.25892988 -192.1640625 177.08984375 C-183.52769977 177.81961175 -175.46696661 181.79417544 -168.88671875 187.38671875 C-167.8125 188.75 -167.8125 188.75 -167.8125 190.75 C-168.4415625 190.92015625 -169.070625 191.0903125 -169.71875 191.265625 C-175.47604865 192.89570353 -180.54134406 194.91919403 -185.8125 197.75 C-185.27367187 197.6778125 -184.73484375 197.605625 -184.1796875 197.53125 C-177.33300035 196.75858311 -170.50785148 196.60828647 -163.625 196.5625 C-162.6870459 196.54960937 -161.7490918 196.53671875 -160.78271484 196.5234375 C-155.10543337 196.51541166 -150.25831726 197.13097325 -144.8125 198.75 C-148.22723361 191.5071703 -152.48378764 188.70994596 -159.8125 185.75 C-159.8125 185.09 -159.8125 184.43 -159.8125 183.75 C-144.00588174 170.29824528 -124.40288436 160.10696706 -105.65234375 151.4765625 C-104.69328125 151.02591431 -104.69328125 151.02591431 -103.71484375 150.56616211 C-101.8125 149.75 -101.8125 149.75 -97.99609375 148.60546875 C-94.50571163 146.57119696 -94.23465677 146.14823795 -93.0703125 142.51171875 C-92.66276486 140.82727673 -92.28599716 139.13514241 -91.9375 137.4375 C-91.73898437 136.59509766 -91.54046875 135.75269531 -91.3359375 134.88476562 C-90.78706397 132.51311275 -90.29024418 130.13685784 -89.8125 127.75 C-89.60496094 126.76386719 -89.39742188 125.77773438 -89.18359375 124.76171875 C-88.6536095 120.46047817 -88.70762604 116.20366347 -88.75 111.875 C-88.75676758 110.55628906 -88.75676758 110.55628906 -88.76367188 109.2109375 C-88.77537663 107.05726197 -88.79330931 104.90362183 -88.8125 102.75 C-88.99425781 103.46027344 -89.17601562 104.17054688 -89.36328125 104.90234375 C-89.61464844 105.82144531 -89.86601562 106.74054688 -90.125 107.6875 C-90.36863281 108.60402344 -90.61226563 109.52054687 -90.86328125 110.46484375 C-91.33314453 111.59599609 -91.33314453 111.59599609 -91.8125 112.75 C-93.2975 113.245 -93.2975 113.245 -94.8125 113.75 C-102.9961575 109.58096693 -105.90068802 102.2473893 -108.81640625 93.86328125 C-110.44333282 88.10223208 -111.25582678 82.26029229 -111.8125 76.3125 C-111.89089111 75.63799805 -111.96928223 74.96349609 -112.05004883 74.26855469 C-112.32625886 70.34568543 -111.94125849 68.91315141 -109.47265625 65.78515625 C-106.8125 63.75 -106.8125 63.75 -104.25 63.625 C-101.13810487 65.06125929 -99.78882712 66.99725865 -97.8125 69.75 C-97.4825 69.75 -97.1525 69.75 -96.8125 69.75 C-96.82821045 68.66170898 -96.8439209 67.57341797 -96.86010742 66.45214844 C-96.91499218 62.35945227 -96.94905983 58.26678763 -96.97729492 54.17382812 C-96.99224968 52.41270451 -97.01262096 50.65161726 -97.03881836 48.890625 C-97.29623178 31.12405196 -95.23597311 16.77905797 -82.875 3 C-60.66728064 -17.70211126 -23.83748361 -17.04400177 0 0 Z M-40.8125 112.75 C-42.93309607 128.04711536 -45.15145095 144.29532886 -43.8125 159.75 C-43.1525 160.41 -42.4925 161.07 -41.8125 161.75 C-41.1525 158.45 -40.4925 155.15 -39.8125 151.75 C-38.8225 156.37 -37.8325 160.99 -36.8125 165.75 C-36.4825 165.75 -36.1525 165.75 -35.8125 165.75 C-35.60310849 154.62486822 -35.62334523 143.5847772 -36.6875 132.5 C-36.80520752 131.25343628 -36.80520752 131.25343628 -36.92529297 129.98168945 C-37.53383471 124.15732597 -38.57801525 118.47255629 -39.8125 112.75 C-40.1425 112.75 -40.4725 112.75 -40.8125 112.75 Z M-67.8125 188.75 C-68.14521798 191.9794476 -68.14521798 191.9794476 -65.40625 194.44921875 C-64.3825032 195.45302243 -63.3508946 196.44885649 -62.3125 197.4375 C-61.78785156 197.94861328 -61.26320313 198.45972656 -60.72265625 198.98632812 C-59.42589096 200.24772708 -58.12003883 201.49977212 -56.8125 202.75 C-56.4825 202.09 -56.1525 201.43 -55.8125 200.75 C-56.96409904 198.33041573 -56.96409904 198.33041573 -58.625 195.75 C-59.43904297 194.4196875 -59.43904297 194.4196875 -60.26953125 193.0625 C-61.74651469 190.68549599 -61.74651469 190.68549599 -63.8125 188.75 C-65.1325 188.75 -66.4525 188.75 -67.8125 188.75 Z M-18.96484375 191.3046875 C-19.55394531 192.40039062 -20.14304687 193.49609375 -20.75 194.625 C-21.35714844 195.71554687 -21.96429688 196.80609375 -22.58984375 197.9296875 C-22.99332031 198.86039063 -23.39679688 199.79109375 -23.8125 200.75 C-23.4825 201.41 -23.1525 202.07 -22.8125 202.75 C-21.18134105 201.17301238 -19.55778667 199.58815634 -17.9375 198 C-17.03257812 197.11828125 -16.12765625 196.2365625 -15.1953125 195.328125 C-13.16707004 193.13363316 -11.92369587 191.4832864 -10.8125 188.75 C-14.90904278 188.2037943 -16.2213703 188.04836874 -18.96484375 191.3046875 Z M-40.8125 195.75 C-42.21279793 207.1371556 -43.19116962 218.46174208 -43.67304802 229.92405319 C-43.78154262 232.49805452 -43.89804749 235.0715992 -44.01625061 237.64517212 C-44.30885538 244.04695553 -44.58979781 250.44923603 -44.86883545 256.85162354 C-45.73903517 276.79793081 -46.67020712 296.72377425 -48.296875 316.625 C-48.38447492 317.7278792 -48.38447492 317.7278792 -48.47384453 318.85303879 C-50.20277087 340.34101196 -53.82828374 365.80975477 -66.8125 383.75 C-67.555 384.78511719 -68.2975 385.82023438 -69.0625 386.88671875 C-73.85274927 393.39544736 -78.93721961 399.13215091 -84.87890625 404.62890625 C-86.8249355 406.76364137 -87.44778044 407.92822234 -87.8125 410.75 C-77.96504727 407.09889453 -69.52363678 400.20036436 -61.07421875 394.08203125 C-58.03763308 391.89070888 -54.94047663 389.80850202 -51.8125 387.75 C-48.18817682 403.92147246 -46.56752357 420.13485977 -45.23193359 436.62353516 C-44.75242388 442.52533896 -44.24521208 448.42471697 -43.73828125 454.32421875 C-42.75345021 465.79867805 -41.77997591 477.27406538 -40.8125 488.75 C-40.4825 488.75 -40.1525 488.75 -39.8125 488.75 C-37.39706792 471.74259299 -35.81769279 454.75794596 -34.58300781 437.62866211 C-33.67217644 425.12394654 -32.40192792 413.02296355 -29.8125 400.75 C-29.16091924 397.24042312 -28.68846006 393.94431681 -28.75 390.375 C-28.770625 389.17875 -28.79125 387.9825 -28.8125 386.75 C-27.13593953 387.90142471 -25.45943905 389.05293685 -23.78320312 390.20483398 C-22.33309718 391.20104364 -20.88256968 392.19663994 -19.43164062 393.19165039 C-15.98628342 395.5567414 -12.54742554 397.9288906 -9.13671875 400.34375 C-3.53877596 404.29760939 1.92643148 407.92638086 8.1875 410.75 C7.75695911 405.90210961 5.86139587 404.12949558 2.3125 400.9375 C-2.31117675 396.572902 -6.09794858 391.93295675 -9.6875 386.6875 C-10.12690918 386.05158936 -10.56631836 385.41567871 -11.01904297 384.76049805 C-17.35043706 375.30188101 -20.99967722 365.72329062 -23.9375 354.75 C-24.27136719 353.56277344 -24.60523438 352.37554687 -24.94921875 351.15234375 C-29.58417116 334.15751824 -31.36099306 317.29847617 -32.3125 299.75 C-32.43477865 297.64432374 -32.55784628 295.53869317 -32.68164062 293.43310547 C-33.37908154 281.39889012 -33.98416125 269.36076913 -34.5625 257.3203125 C-34.68939329 254.72265333 -34.81634613 252.12499706 -34.94335938 249.52734375 C-35.18690665 244.53825723 -35.41547147 239.548799 -35.63476562 234.55859375 C-36.24454543 221.43565257 -37.37853208 208.66617767 -39.8125 195.75 C-40.1425 195.75 -40.4725 195.75 -40.8125 195.75 Z M-116.8125 210.75 C-116.008125 211.678125 -115.20375 212.60625 -114.375 213.5625 C-103.39242249 226.39285714 -103.39242249 226.39285714 -98.8125 232.9375 C-98.1525 233.865625 -97.4925 234.79375 -96.8125 235.75 C-96.4825 235.75 -96.1525 235.75 -95.8125 235.75 C-96.25352915 226.02530726 -99.73418795 220.07625121 -106.640625 213.3515625 C-110.0346478 210.8487759 -112.65353984 210.75 -116.8125 210.75 Z M28.09375 212.546875 C22.46285133 216.10080285 18.64222642 221.57947214 16.609375 227.8515625 C16.01645534 230.51970096 15.98378428 233.03379034 16.1875 235.75 C19.30563685 232.90699287 21.6736054 230.12908255 23.9375 226.5625 C27.44659171 221.10595425 31.7561787 216.46689534 36.1875 211.75 C32.75022483 210.60424161 31.31996821 211.04312922 28.09375 212.546875 Z M-95.8125 235.75 C-94.8125 237.75 -94.8125 237.75 -94.8125 237.75 Z M15.1875 235.75 C16.1875 237.75 16.1875 237.75 16.1875 237.75 Z M-277.8125 297.75 C-276.8125 299.75 -276.8125 299.75 -276.8125 299.75 Z M196.1875 297.75 C197.1875 299.75 197.1875 299.75 197.1875 299.75 Z M-278.8125 299.75 C-277.8125 301.75 -277.8125 301.75 -277.8125 301.75 Z M-316.8125 386.75 C-317.0084375 387.3584375 -317.204375 387.966875 -317.40625 388.59375 C-319.42037805 394.49722878 -321.85443907 400.01990307 -324.6875 405.5625 C-333.14306817 422.1884404 -338.51560513 436.92240717 -337.8125 455.75 C-335.61223163 452.44959744 -334.88153861 449.75381063 -333.8125 445.9375 C-331.69333493 438.83172145 -328.96447572 432.07804222 -325.9375 425.3125 C-325.34001953 423.94677856 -325.34001953 423.94677856 -324.73046875 422.5534668 C-322.18466732 416.98452617 -319.2389711 412.39967189 -315.26123047 407.73803711 C-312.75069248 404.29292237 -312.73077883 402.28718808 -313.37109375 398.078125 C-313.65523754 396.716878 -313.94847527 395.35750282 -314.25 394 C-314.47139648 392.95392578 -314.47139648 392.95392578 -314.69726562 391.88671875 C-315.06118033 390.1727979 -315.43579068 388.46115419 -315.8125 386.75 C-316.1425 386.75 -316.4725 386.75 -316.8125 386.75 Z M236.1875 386.75 C235.65589543 389.16474617 235.13695234 391.58108107 234.625 394 C234.47353516 394.68191406 234.32207031 395.36382813 234.16601562 396.06640625 C233.05228338 401.00234896 233.05228338 401.00234896 234.1875 405.75 C235.21509873 407.23430928 236.24873303 408.71511468 237.32397461 410.1652832 C247.15760732 423.56035542 252.71061517 439.86819046 257.1875 455.75 C257.5175 455.75 257.8475 455.75 258.1875 455.75 C258.2704674 453.50066173 258.32755249 451.25036774 258.375 449 C258.40980469 447.74703125 258.44460938 446.4940625 258.48046875 445.203125 C258.13242831 434.46234847 253.74168233 424.79131672 249.3125 415.1875 C248.79558594 414.04603516 248.27867187 412.90457031 247.74609375 411.72851562 C246.23586053 408.3980139 244.71205201 405.07396558 243.1875 401.75 C241.87714339 398.85887437 240.56836841 395.96704499 239.26123047 393.07446289 C238.27697654 390.94370308 237.25021378 388.84253834 236.1875 386.75 Z M17.1875 468.75 C16.44306641 470.23886719 16.44306641 470.23886719 15.68359375 471.7578125 C15.35834717 472.40782227 15.03310059 473.05783203 14.69799805 473.72753906 C13.97524756 475.17402673 13.25408702 476.62130979 12.53442383 478.06933594 C10.79277431 481.56868704 9.03742414 485.05599504 7.203125 488.5078125 C3.4552465 495.66722143 0.27253381 502.6664981 -0.8125 510.75 C-0.4825 511.41 -0.1525 512.07 0.1875 512.75 C3.19336644 509.05832909 6.17828408 505.35459966 9.1171875 501.609375 C10.79576564 499.47114978 12.46866307 497.447209 14.3203125 495.453125 C20.53130047 488.19196998 18.69205987 477.72210953 18.1875 468.75 C17.8575 468.75 17.5275 468.75 17.1875 468.75 Z M-96.8125 469.75 C-99.26421376 472.20171376 -98.65845297 477.83183717 -98.7644043 481.1809082 C-98.47986703 490.90561153 -92.69208583 496.9431174 -86.43994141 503.86865234 C-84.809923 505.75297906 -83.3732918 507.69517969 -81.94921875 509.73828125 C-81.24410156 510.73214844 -80.53898437 511.72601562 -79.8125 512.75 C-79.4825 512.75 -79.1525 512.75 -78.8125 512.75 C-79.84264476 497.2978286 -87.06047297 481.77217102 -96.8125 469.75 Z M240.1875 485.75 C241.1875 487.75 241.1875 487.75 241.1875 487.75 Z " fill="#F8F5ED" transform="translate(497.8125,146.25)"/>
<path d="M0 0 C1.33287136 5.06491116 0.56494172 8.95033743 -0.625 13.92578125 C-0.810625 14.95251953 -0.810625 14.95251953 -1 16 C-0.67 16.33 -0.34 16.66 0 17 C0.60521682 23.18019489 0.14158224 27.56264612 -3 33 C-3.350625 34.2375 -3.70125 35.475 -4.0625 36.75 C-5 40 -5 40 -7 42 C-10.4104584 41.64100438 -12.98653684 40.5644362 -16 39 C-16.09087891 40.15628906 -16.09087891 40.15628906 -16.18359375 41.3359375 C-16.26738281 42.33882812 -16.35117187 43.34171875 -16.4375 44.375 C-16.51871094 45.37273438 -16.59992187 46.37046875 -16.68359375 47.3984375 C-17 50 -17 50 -18 52 C-18.27571479 55.08100341 -18.44663533 58.16171476 -18.62109375 61.25 C-19 64 -19 64 -21 66 C-23.79192847 66.55838569 -25.43063018 66.33902311 -27.8828125 64.87890625 C-29.62973224 63.63060125 -31.32924389 62.34816055 -33 61 C-28.96282081 25.68974621 -28.96282081 25.68974621 -18 14 C-17.23945312 13.09894531 -16.47890625 12.19789063 -15.6953125 11.26953125 C-6.03571429 0 -6.03571429 0 0 0 Z " fill="#F1EFE8" transform="translate(729,696)"/>
<path d="M0 0 C9.97733686 2.57857751 16.91906956 12.33265087 22.5625 20.515625 C26.66666819 27.60869829 28.22773784 34.75347497 29.84472656 42.75341797 C30.25229912 44.76132664 30.67617692 46.76532956 31.1015625 48.76953125 C31.36195313 50.03667969 31.62234375 51.30382812 31.890625 52.609375 C32.24688965 54.3413916 32.24688965 54.3413916 32.61035156 56.10839844 C33 59 33 59 32 62 C26.08842105 66.09263158 26.08842105 66.09263158 22.0625 65.75 C21.0415625 65.37875 21.0415625 65.37875 20 65 C17.99203187 58.7250996 17.99203187 58.7250996 18.03125 55.15625 C17.99746096 51.74355692 17.37782301 48.91683629 16.5 45.625 C16.2215625 44.56539062 15.943125 43.50578125 15.65625 42.4140625 C15.4396875 41.61742187 15.223125 40.82078125 15 40 C13.68 40 12.36 40 11 40 C10.67 40.99 10.34 41.98 10 43 C7.14547082 41.84275844 5.37489672 40.84965676 4.10546875 37.97265625 C3.61217395 36.38725423 3.14261739 34.79429895 2.6953125 33.1953125 C2.06652398 30.82955252 2.06652398 30.82955252 0.25 28.5 C-1.67091485 24.6581703 -0.83199915 21.11377357 0 17 C0.33 16.01 0.66 15.02 1 14 C0.33915417 11.66501142 -0.32811503 9.33183607 -1 7 C-1.1875 3.625 -1.1875 3.625 -1 1 C-0.67 0.67 -0.34 0.34 0 0 Z " fill="#EFEDE6" transform="translate(187,696)"/>
<path d="M0 0 C0.33 0 0.66 0 1 0 C1.31051952 16.09526176 0.37226354 31.96531948 -1 48 C-1.33 48 -1.66 48 -2 48 C-2.22786458 45.94921875 -2.45572917 43.8984375 -2.68359375 41.84765625 C-2.81886614 39.98859771 -2.81886614 39.98859771 -4 39 C-4.07179964 37.48071962 -4.08392007 35.95832518 -4.0625 34.4375 C-4.05347656 33.61121094 -4.04445313 32.78492188 -4.03515625 31.93359375 C-4.02355469 31.29550781 -4.01195312 30.65742188 -4 30 C-3.01 30.33 -2.02 30.66 -1 31 C-1 28.36 -1 25.72 -1 23 C-1.66 22.67 -2.32 22.34 -3 22 C-2.68289063 21.00871094 -2.36578125 20.01742188 -2.0390625 18.99609375 C-0.90616541 15.03095395 -0.593831 11.18381716 -0.375 7.0625 C-0.33632813 6.37865234 -0.29765625 5.69480469 -0.2578125 4.99023438 C-0.16477588 3.32720487 -0.08136213 1.66364153 0 0 Z " fill="#91918E" transform="translate(451,422)"/>
<path d="M0 0 C0.33 0 0.66 0 1 0 C1.17714229 7.62332121 1.34308529 15.2468166 1.49477577 22.87068558 C1.56556468 26.41084527 1.64019359 29.95083673 1.72363281 33.49072266 C1.81941293 37.56133905 1.89842775 41.63213141 1.9765625 45.703125 C2.00875885 46.97303284 2.0409552 48.24294067 2.0741272 49.55133057 C2.09429901 50.73225281 2.11447083 51.91317505 2.13525391 53.12988281 C2.15746002 54.16912903 2.17966614 55.20837524 2.20254517 56.27911377 C1.89776615 60.37335624 0.25215714 62.62176429 -2 66 C-1.90150757 64.95175049 -1.90150757 64.95175049 -1.80102539 63.88232422 C-0.73033821 50.98491883 -0.65227466 38.0588176 -0.4375 25.125 C-0.39422174 22.68358767 -0.35060478 20.24218132 -0.30664062 17.80078125 C-0.20052034 11.86725082 -0.0985877 5.93366012 0 0 Z " fill="#ABAAA6" transform="translate(141,596)"/>
<path d="M0 0 C0.33 0 0.66 0 1 0 C1.33951619 1.56116819 1.67132544 3.12401338 2 4.6875 C2.185625 5.55761719 2.37125 6.42773438 2.5625 7.32421875 C2.98972047 9.93712964 3.07616201 12.35813038 3 15 C1 14 -1 13 -3 12 C-3.33 13.32 -3.66 14.64 -4 16 C-4.25 9.375 -4.25 9.375 -2 6 C-1.29835358 4.01200182 -0.62627128 2.01301483 0 0 Z " fill="#BCBCBA" transform="translate(458,297)"/>
<path d="M0 0 C0.94772491 2.55885726 1.15563524 3.63771216 0.05859375 6.19140625 C-1.22986168 9.60985442 -1.38342659 12.60757059 -1.5625 16.25 C-1.90054645 22.90054645 -1.90054645 22.90054645 -3 24 C-3.23075082 25.34747084 -3.41153063 26.70377565 -3.5625 28.0625 C-3.706875 29.361875 -3.85125 30.66125 -4 32 C-4.33 32 -4.66 32 -5 32 C-5.30811248 25.52963782 -4.74231378 19.54260603 -3.625 13.1875 C-3.49891357 12.45861572 -3.37282715 11.72973145 -3.24291992 10.97875977 C-2.53061615 7.11418963 -1.61960592 3.58425831 0 0 Z " fill="#989895" transform="translate(196,450)"/>
<path d="M0 0 C5 2 5 2 6 4 C5.01 4 4.02 4 3 4 C2.67 8.29 2.34 12.58 2 17 C1.34 16.67 0.68 16.34 0 16 C0 10.72 0 5.44 0 0 Z " fill="#D6D5D1" transform="translate(354,564)"/>
<path d="M0 0 C1.32 0.33 2.64 0.66 4 1 C2.06852571 2.9853759 0.13033391 4.96329392 -1.8125 6.9375 C-2.35970703 7.50146484 -2.90691406 8.06542969 -3.47070312 8.64648438 C-7.66015625 12.88671875 -7.66015625 12.88671875 -11 14 C-9.42219077 10.28954753 -7.09296752 7.70093616 -4.375 4.75 C-3.55773437 3.85796875 -2.74046875 2.9659375 -1.8984375 2.046875 C-1.27195312 1.37140625 -0.64546875 0.6959375 0 0 Z " fill="#CCCBC8" transform="translate(720,700)"/>
<path d="M0 0 C1.32 0.33 2.64 0.66 4 1 C4 7.27 4 13.54 4 20 C1.86168417 16.79252626 1.46552015 14.88370763 0.875 11.125 C0.70742187 10.09632813 0.53984375 9.06765625 0.3671875 8.0078125 C0.03629634 5.29732111 -0.07041464 2.72605266 0 0 Z " fill="#A6A6A3" transform="translate(181,528)"/>
<path d="M0 0 C0.103125 0.598125 0.20625 1.19625 0.3125 1.8125 C1.09423531 4.29983964 2.1264074 5.24696028 4 7 C3.02471263 8.33617352 2.04466681 9.6688751 1.0625 11 C0.24458984 12.11375 0.24458984 12.11375 -0.58984375 13.25 C-1.05519531 13.8275 -1.52054688 14.405 -2 15 C-2.33 15 -2.66 15 -3 15 C-2.5547115 9.72684667 -1.91626837 4.98229776 0 0 Z " fill="#CECDCA" transform="translate(187,660)"/>
<path d="M0 0 C5.32956851 6.71989073 4 13.75422484 4 22 C0.32351746 15.40395779 -0.33065766 7.43979742 0 0 Z " fill="#B8B8B4" transform="translate(467,468)"/>
<path d="M0 0 C0.99 0.33 1.98 0.66 3 1 C3 6.61 3 12.22 3 18 C2.67 18 2.34 18 2 18 C1.77213542 15.94921875 1.54427083 13.8984375 1.31640625 11.84765625 C1.18113386 9.98859771 1.18113386 9.98859771 0 9 C-0.07179964 7.48071962 -0.08392007 5.95832518 -0.0625 4.4375 C-0.05347656 3.61121094 -0.04445313 2.78492188 -0.03515625 1.93359375 C-0.02355469 1.29550781 -0.01195312 0.65742188 0 0 Z " fill="#BCBBB6" transform="translate(447,452)"/>
<path d="M0 0 C1.98 1.32 3.96 2.64 6 4 C6.33 3.01 6.66 2.02 7 1 C7 2.32 7 3.64 7 5 C3.7 5.66 0.4 6.32 -3 7 C-1.125 2.25 -1.125 2.25 0 0 Z " fill="#BFBFBC" transform="translate(190,771)"/>
<path d="M0 0 C0.33 0 0.66 0 1 0 C1.22415191 2.35359502 1.42959058 4.70648411 1.625 7.0625 C1.74101562 8.37347656 1.85703125 9.68445313 1.9765625 11.03515625 C2.00153472 15.25962268 1.3471837 18.04586159 0 22 C-0.33 22 -0.66 22 -1 22 C-1.14715692 14.6094524 -0.70776992 7.35575165 0 0 Z " fill="#8F8F8D" transform="translate(463,574)"/>
<path d="M0 0 C4.75 0.875 4.75 0.875 7 2 C7.66796875 3.92578125 7.66796875 3.92578125 8.1875 6.3125 C8.45626953 7.48232422 8.45626953 7.48232422 8.73046875 8.67578125 C9.01067443 11.09204759 8.74132137 12.70242952 8 15 C4.9725777 9.57586837 4.9725777 9.57586837 5.125 6.375 C5.26115141 3.70235512 5.26115141 3.70235512 2.5 1.6875 C1.675 1.130625 0.85 0.57375 0 0 Z " fill="#C7C6C4" transform="translate(708,562)"/>
<path d="M0 0 C0.99 0 1.98 0 3 0 C2.67 0.99 2.34 1.98 2 3 C1.85507877 4.40664926 1.75371069 5.8181133 1.68359375 7.23046875 C1.64169922 8.03291016 1.59980469 8.83535156 1.55664062 9.66210938 C1.49766602 10.91217773 1.49766602 10.91217773 1.4375 12.1875 C1.39431641 13.03248047 1.35113281 13.87746094 1.30664062 14.74804688 C1.20068482 16.83184433 1.0998498 18.91590103 1 21 C0.67 21 0.34 21 0 21 C-0.19592461 17.68794116 -0.38032746 14.37534146 -0.5625 11.0625 C-0.61857422 10.11697266 -0.67464844 9.17144531 -0.73242188 8.19726562 C-0.78076172 7.29814453 -0.82910156 6.39902344 -0.87890625 5.47265625 C-0.9260376 4.64000244 -0.97316895 3.80734863 -1.02172852 2.94946289 C-1 1 -1 1 0 0 Z " fill="#CECDCC" transform="translate(399,614)"/>
<path d="M0 0 C2.02350324 3.03525486 2.32124018 4.19426202 2.625 7.6875 C2.69976563 8.49574219 2.77453125 9.30398438 2.8515625 10.13671875 C2.90054688 10.75160156 2.94953125 11.36648438 3 12 C0.9375 10.5 0.9375 10.5 -1 8 C-1.05928384 5.17593353 -0.55954815 2.79774073 0 0 Z " fill="#C2C2C0" transform="translate(729,663)"/>
<path d="M0 0 C0.33 0 0.66 0 1 0 C1.8320582 5.72040011 2.12036664 11.22240116 2 17 C1.67 15.68 1.34 14.36 1 13 C0.34 13 -0.32 13 -1 13 C-0.67 8.71 -0.34 4.42 0 0 Z " fill="#908F8D" transform="translate(450,555)"/>
<path d="M0 0 C1.32 0.33 2.64 0.66 4 1 C3.34 1 2.68 1 2 1 C2.33 3.97 2.66 6.94 3 10 C2.01 10.33 1.02 10.66 0 11 C0 7.37 0 3.74 0 0 Z " fill="#A0A19F" transform="translate(730,501)"/>
<path d="M0 0 C0.66 0 1.32 0 2 0 C2 3.63 2 7.26 2 11 C1.34 10.67 0.68 10.34 0 10 C-1.29411765 2.58823529 -1.29411765 2.58823529 0 0 Z " fill="#E5E4DD" transform="translate(466,433)"/>
<path d="M0 0 C-1 3 -1 3 -3.28515625 4.16796875 C-4.20167969 4.50441406 -5.11820312 4.84085937 -6.0625 5.1875 C-7.44115234 5.70376953 -7.44115234 5.70376953 -8.84765625 6.23046875 C-9.55792969 6.48441406 -10.26820313 6.73835938 -11 7 C-11.66 6.34 -12.32 5.68 -13 5 C-11.21046815 4.16209211 -9.41830305 3.32980604 -7.625 2.5 C-6.62726563 2.0359375 -5.62953125 1.571875 -4.6015625 1.09375 C-2 0 -2 0 0 0 Z " fill="#B9B9B7" transform="translate(398,296)"/>
<path d="M0 0 C0.99 0.66 1.98 1.32 3 2 C3 2.66 3 3.32 3 4 C-0.3 4.66 -3.6 5.32 -7 6 C-7 5.34 -7 4.68 -7 4 C-4.69 3.34 -2.38 2.68 0 2 C0 1.34 0 0.68 0 0 Z " fill="#BEBEBC" transform="translate(327,333)"/>
<path d="M0 0 C2.97 0 5.94 0 9 0 C9.33 1.32 9.66 2.64 10 4 C9.01 5.485 9.01 5.485 8 7 C7.67 5.02 7.34 3.04 7 1 C4.69 1 2.38 1 0 1 C0 0.67 0 0.34 0 0 Z " fill="#BFBEBC" transform="translate(164,755)"/>
<path d="M0 0 C0.33 0 0.66 0 1 0 C1.87890625 6.15234375 1.87890625 6.15234375 2 8 C1.67 8.33 1.34 8.66 1 9 C0.76924918 10.34747084 0.58846937 11.70377565 0.4375 13.0625 C0.293125 14.361875 0.14875 15.66125 0 17 C-0.33 17 -0.66 17 -1 17 C-1.18451025 5.47835991 -1.18451025 5.47835991 0 0 Z " fill="#898986" transform="translate(735,714)"/>
<path d="M0 0 C0 0.66 0 1.32 0 2 C-1.43534841 2.2226746 -2.87345525 2.42761906 -4.3125 2.625 C-5.11300781 2.74101562 -5.91351563 2.85703125 -6.73828125 2.9765625 C-9 3 -9 3 -12 1 C-7.95858806 0.36605303 -4.0934693 -0.12404452 0 0 Z " fill="#C2C2BF" transform="translate(379,477)"/>
<path d="M0 0 C0.99 0.33 1.98 0.66 3 1 C3.30466674 6.28089024 3.317124 7.577168 0 12 C0 8.04 0 4.08 0 0 Z " fill="#E3E1DB" transform="translate(449,414)"/>
<path d="M0 0 C0.33 0 0.66 0 1 0 C1.06058594 0.61488281 1.12117187 1.22976563 1.18359375 1.86328125 C1.26738281 2.67152344 1.35117188 3.47976563 1.4375 4.3125 C1.51871094 5.11300781 1.59992188 5.91351563 1.68359375 6.73828125 C1.95265693 9.16087179 1.95265693 9.16087179 3 12 C1.68 12.99 0.36 13.98 -1 15 C-0.67 10.05 -0.34 5.1 0 0 Z " fill="#8F8F8C" transform="translate(252,479)"/>
<path d="M0 0 C0.33 0 0.66 0 1 0 C1.33 4.29 1.66 8.58 2 13 C1.34 13 0.68 13 0 13 C-0.33 13.66 -0.66 14.32 -1 15 C-0.67 10.05 -0.34 5.1 0 0 Z " fill="#C5C4C2" transform="translate(410,257)"/>
<path d="M0 0 C0.33 0.99 0.66 1.98 1 3 C-0.9375 5.6875 -0.9375 5.6875 -3 8 C-3.99 7.67 -4.98 7.34 -6 7 C-4.02 4.69 -2.04 2.38 0 0 Z " fill="#C8C8C3" transform="translate(505,649)"/>
<path d="M0 0 C0.66 1.32 1.32 2.64 2 4 C2.66 3.67 3.32 3.34 4 3 C4.33 3.99 4.66 4.98 5 6 C2.525 7.485 2.525 7.485 0 9 C0 6.03 0 3.06 0 0 Z " fill="#9C9C98" transform="translate(212,590)"/>
<path d="M0 0 C0.66 0.66 1.32 1.32 2 2 C1.67 2.99 1.34 3.98 1 5 C-2.0625 6.1875 -2.0625 6.1875 -5 7 C-3.35 4.69 -1.7 2.38 0 0 Z " fill="#BCBCBA" transform="translate(214,572)"/>
<path d="M0 0 C2.95183101 2.95183101 3.08663988 5.95511947 4 10 C3.34 10 2.68 10 2 10 C1.46987262 8.71211992 0.9511671 7.41953322 0.4375 6.125 C0.14746094 5.40570313 -0.14257812 4.68640625 -0.44140625 3.9453125 C-1 2 -1 2 0 0 Z " fill="#C9C9C6" transform="translate(664,390)"/>
<path d="M0 0 C-0.3125 2.375 -0.3125 2.375 -1 5 C-1.99 5.66 -2.98 6.32 -4 7 C-4 6.34 -4 5.68 -4 5 C-4.66 4.67 -5.32 4.34 -6 4 C-2.25 0 -2.25 0 0 0 Z " fill="#A5A5A3" transform="translate(255,545)"/>
<path d="M0 0 C0.66 0.33 1.32 0.66 2 1 C2.625 3.5625 2.625 3.5625 3 6 C1.02 5.34 -0.96 4.68 -3 4 C-3 3.34 -3 2.68 -3 2 C-2.01 1.34 -1.02 0.68 0 0 Z " fill="#A1A19F" transform="translate(341,328)"/>
</svg>
